<mxfile host="app.diagrams.net" modified="2022-06-04T11:54:43.516Z" agent="5.0 (Windows NT 10.0; Win64; x64) AppleWebKit/537.36 (KHTML, like Gecko) Chrome/102.0.5005.63 Safari/537.36 Edg/102.0.1245.30" etag="UCP-5Ow33_UazTTTWWZz" version="19.0.0" type="github">
  <diagram id="e363_-mx_vtwIWTnsq79" name="Page-1">
    <mxGraphModel dx="1554" dy="598" grid="1" gridSize="10" guides="1" tooltips="1" connect="1" arrows="1" fold="1" page="1" pageScale="1" pageWidth="827" pageHeight="1169" math="0" shadow="0">
      <root>
        <mxCell id="0" />
        <mxCell id="1" parent="0" />
        <mxCell id="8yhviAMyGkTpuzAkyulQ-7" value="Remplir questionnaire" style="edgeStyle=orthogonalEdgeStyle;rounded=0;orthogonalLoop=1;jettySize=auto;html=1;exitX=1;exitY=0.5;exitDx=0;exitDy=0;" edge="1" parent="1" source="8yhviAMyGkTpuzAkyulQ-1" target="8yhviAMyGkTpuzAkyulQ-4">
          <mxGeometry relative="1" as="geometry" />
        </mxCell>
        <mxCell id="8yhviAMyGkTpuzAkyulQ-1" value="Etudiant" style="rounded=0;whiteSpace=wrap;html=1;gradientColor=none;fillColor=none;" vertex="1" parent="1">
          <mxGeometry x="160" y="170" width="120" height="60" as="geometry" />
        </mxCell>
        <mxCell id="8yhviAMyGkTpuzAkyulQ-9" value="Edite / supprime les réponses" style="edgeStyle=orthogonalEdgeStyle;rounded=0;orthogonalLoop=1;jettySize=auto;html=1;exitX=1;exitY=0.75;exitDx=0;exitDy=0;entryX=-0.006;entryY=0.523;entryDx=0;entryDy=0;entryPerimeter=0;" edge="1" parent="1" source="8yhviAMyGkTpuzAkyulQ-2" target="8yhviAMyGkTpuzAkyulQ-4">
          <mxGeometry relative="1" as="geometry" />
        </mxCell>
        <mxCell id="8yhviAMyGkTpuzAkyulQ-2" value="Enseignant" style="rounded=0;whiteSpace=wrap;html=1;fillColor=none;gradientColor=none;" vertex="1" parent="1">
          <mxGeometry x="60" y="320" width="120" height="60" as="geometry" />
        </mxCell>
        <mxCell id="8yhviAMyGkTpuzAkyulQ-10" value="Créer classe, enseignants, étudiants" style="edgeStyle=orthogonalEdgeStyle;rounded=0;orthogonalLoop=1;jettySize=auto;html=1;exitX=1;exitY=0.25;exitDx=0;exitDy=0;entryX=0.389;entryY=0.992;entryDx=0;entryDy=0;entryPerimeter=0;" edge="1" parent="1" source="8yhviAMyGkTpuzAkyulQ-3" target="8yhviAMyGkTpuzAkyulQ-4">
          <mxGeometry relative="1" as="geometry" />
        </mxCell>
        <mxCell id="8yhviAMyGkTpuzAkyulQ-3" value="Direction" style="rounded=0;whiteSpace=wrap;html=1;fillColor=none;gradientColor=none;" vertex="1" parent="1">
          <mxGeometry x="160" y="490" width="120" height="60" as="geometry" />
        </mxCell>
        <mxCell id="8yhviAMyGkTpuzAkyulQ-8" style="edgeStyle=orthogonalEdgeStyle;rounded=0;orthogonalLoop=1;jettySize=auto;html=1;exitX=0.007;exitY=0.397;exitDx=0;exitDy=0;entryX=1;entryY=0.25;entryDx=0;entryDy=0;exitPerimeter=0;" edge="1" parent="1" source="8yhviAMyGkTpuzAkyulQ-4" target="8yhviAMyGkTpuzAkyulQ-2">
          <mxGeometry relative="1" as="geometry" />
        </mxCell>
        <mxCell id="8yhviAMyGkTpuzAkyulQ-14" value="Consulter les réponses" style="edgeLabel;html=1;align=center;verticalAlign=middle;resizable=0;points=[];" vertex="1" connectable="0" parent="8yhviAMyGkTpuzAkyulQ-8">
          <mxGeometry x="0.2366" y="-2" relative="1" as="geometry">
            <mxPoint as="offset" />
          </mxGeometry>
        </mxCell>
        <mxCell id="8yhviAMyGkTpuzAkyulQ-11" value="Consulte les données" style="edgeStyle=orthogonalEdgeStyle;rounded=0;orthogonalLoop=1;jettySize=auto;html=1;exitX=0.571;exitY=0.999;exitDx=0;exitDy=0;entryX=1;entryY=0.75;entryDx=0;entryDy=0;exitPerimeter=0;" edge="1" parent="1" source="8yhviAMyGkTpuzAkyulQ-4" target="8yhviAMyGkTpuzAkyulQ-3">
          <mxGeometry relative="1" as="geometry" />
        </mxCell>
        <mxCell id="8yhviAMyGkTpuzAkyulQ-4" value="&amp;lt;&amp;lt;system&amp;gt;&amp;gt;&lt;br&gt;Opinion" style="ellipse;whiteSpace=wrap;html=1;aspect=fixed;fillColor=none;gradientColor=none;" vertex="1" parent="1">
          <mxGeometry x="410" y="240" width="240" height="240" as="geometry" />
        </mxCell>
        <object placeholders="1" c4Name="[System Context] Diagram title" c4Type="ContainerScopeBoundary" c4Description="Diagram short description" label="&lt;font style=&quot;font-size: 16px&quot;&gt;&lt;b&gt;&lt;div style=&quot;text-align: left&quot;&gt;%c4Name%&lt;/div&gt;&lt;/b&gt;&lt;/font&gt;&lt;div style=&quot;text-align: left&quot;&gt;%c4Description%&lt;/div&gt;" id="8yhviAMyGkTpuzAkyulQ-5">
          <mxCell style="text;html=1;strokeColor=none;fillColor=none;align=left;verticalAlign=top;whiteSpace=wrap;rounded=0;metaEdit=1;allowArrows=0;resizable=1;rotatable=0;connectable=0;recursiveResize=0;expand=0;pointerEvents=0;points=[[0.25,0,0],[0.5,0,0],[0.75,0,0],[1,0.25,0],[1,0.5,0],[1,0.75,0],[0.75,1,0],[0.5,1,0],[0.25,1,0],[0,0.75,0],[0,0.5,0],[0,0.25,0]];" vertex="1" parent="1">
            <mxGeometry x="110" y="50" width="260" height="40" as="geometry" />
          </mxCell>
        </object>
      </root>
    </mxGraphModel>
  </diagram>
</mxfile>
